<mxfile host="app.diagrams.net" agent="Mozilla/5.0 (Windows NT 10.0; Win64; x64) AppleWebKit/537.36 (KHTML, like Gecko) Chrome/130.0.0.0 Safari/537.36" version="24.8.1">
  <diagram id="C5RBs43oDa-KdzZeNtuy" name="Page-1">
    <mxGraphModel dx="1088" dy="1220" grid="1" gridSize="10" guides="1" tooltips="1" connect="1" arrows="1" fold="1" page="1" pageScale="1" pageWidth="827" pageHeight="1169" math="0" shadow="0">
      <root>
        <mxCell id="WIyWlLk6GJQsqaUBKTNV-0" />
        <mxCell id="WIyWlLk6GJQsqaUBKTNV-1" parent="WIyWlLk6GJQsqaUBKTNV-0" />
        <mxCell id="WIyWlLk6GJQsqaUBKTNV-4" value="Yes" style="rounded=0;html=1;jettySize=auto;orthogonalLoop=1;fontSize=11;endArrow=block;endFill=0;endSize=8;strokeWidth=1;shadow=0;labelBackgroundColor=none;edgeStyle=orthogonalEdgeStyle;" parent="WIyWlLk6GJQsqaUBKTNV-1" source="WIyWlLk6GJQsqaUBKTNV-6" edge="1">
          <mxGeometry y="20" relative="1" as="geometry">
            <mxPoint as="offset" />
            <mxPoint x="220" y="290" as="targetPoint" />
          </mxGeometry>
        </mxCell>
        <mxCell id="WIyWlLk6GJQsqaUBKTNV-5" value="No" style="edgeStyle=orthogonalEdgeStyle;rounded=0;html=1;jettySize=auto;orthogonalLoop=1;fontSize=11;endArrow=block;endFill=0;endSize=8;strokeWidth=1;shadow=0;labelBackgroundColor=none;" parent="WIyWlLk6GJQsqaUBKTNV-1" target="WIyWlLk6GJQsqaUBKTNV-7" edge="1">
          <mxGeometry y="10" relative="1" as="geometry">
            <mxPoint as="offset" />
            <mxPoint x="270" y="210" as="sourcePoint" />
          </mxGeometry>
        </mxCell>
        <mxCell id="WIyWlLk6GJQsqaUBKTNV-8" value="No" style="rounded=0;html=1;jettySize=auto;orthogonalLoop=1;fontSize=11;endArrow=block;endFill=0;endSize=8;strokeWidth=1;shadow=0;labelBackgroundColor=none;edgeStyle=orthogonalEdgeStyle;" parent="WIyWlLk6GJQsqaUBKTNV-1" target="WIyWlLk6GJQsqaUBKTNV-11" edge="1">
          <mxGeometry x="0.3333" y="20" relative="1" as="geometry">
            <mxPoint as="offset" />
            <mxPoint x="220" y="370" as="sourcePoint" />
          </mxGeometry>
        </mxCell>
        <mxCell id="WIyWlLk6GJQsqaUBKTNV-9" value="Yes" style="edgeStyle=orthogonalEdgeStyle;rounded=0;html=1;jettySize=auto;orthogonalLoop=1;fontSize=11;endArrow=block;endFill=0;endSize=8;strokeWidth=1;shadow=0;labelBackgroundColor=none;" parent="WIyWlLk6GJQsqaUBKTNV-1" target="WIyWlLk6GJQsqaUBKTNV-12" edge="1">
          <mxGeometry y="10" relative="1" as="geometry">
            <mxPoint as="offset" />
            <mxPoint x="270" y="330" as="sourcePoint" />
          </mxGeometry>
        </mxCell>
        <mxCell id="4c8Pc-mHEQU1tu85xE3z-6" value="" style="edgeStyle=orthogonalEdgeStyle;rounded=0;orthogonalLoop=1;jettySize=auto;html=1;" edge="1" parent="WIyWlLk6GJQsqaUBKTNV-1" source="4c8Pc-mHEQU1tu85xE3z-4" target="4c8Pc-mHEQU1tu85xE3z-5">
          <mxGeometry relative="1" as="geometry" />
        </mxCell>
        <mxCell id="4c8Pc-mHEQU1tu85xE3z-4" value="START" style="strokeWidth=2;html=1;shape=mxgraph.flowchart.terminator;whiteSpace=wrap;" vertex="1" parent="WIyWlLk6GJQsqaUBKTNV-1">
          <mxGeometry x="130" y="40" width="100" height="40" as="geometry" />
        </mxCell>
        <mxCell id="4c8Pc-mHEQU1tu85xE3z-8" value="" style="edgeStyle=orthogonalEdgeStyle;rounded=0;orthogonalLoop=1;jettySize=auto;html=1;" edge="1" parent="WIyWlLk6GJQsqaUBKTNV-1" source="4c8Pc-mHEQU1tu85xE3z-5" target="4c8Pc-mHEQU1tu85xE3z-7">
          <mxGeometry relative="1" as="geometry" />
        </mxCell>
        <mxCell id="4c8Pc-mHEQU1tu85xE3z-5" value="User/Admin Login" style="shape=parallelogram;perimeter=parallelogramPerimeter;whiteSpace=wrap;html=1;fixedSize=1;strokeWidth=2;" vertex="1" parent="WIyWlLk6GJQsqaUBKTNV-1">
          <mxGeometry x="70" y="120" width="220" height="50" as="geometry" />
        </mxCell>
        <mxCell id="4c8Pc-mHEQU1tu85xE3z-12" value="" style="edgeStyle=orthogonalEdgeStyle;rounded=0;orthogonalLoop=1;jettySize=auto;html=1;" edge="1" parent="WIyWlLk6GJQsqaUBKTNV-1" source="4c8Pc-mHEQU1tu85xE3z-7" target="4c8Pc-mHEQU1tu85xE3z-11">
          <mxGeometry relative="1" as="geometry" />
        </mxCell>
        <mxCell id="4c8Pc-mHEQU1tu85xE3z-7" value="Login / Resgistration" style="shape=parallelogram;perimeter=parallelogramPerimeter;whiteSpace=wrap;html=1;fixedSize=1;strokeWidth=2;" vertex="1" parent="WIyWlLk6GJQsqaUBKTNV-1">
          <mxGeometry x="70" y="250" width="220" height="50" as="geometry" />
        </mxCell>
        <mxCell id="4c8Pc-mHEQU1tu85xE3z-14" value="" style="edgeStyle=orthogonalEdgeStyle;rounded=0;orthogonalLoop=1;jettySize=auto;html=1;" edge="1" parent="WIyWlLk6GJQsqaUBKTNV-1" target="4c8Pc-mHEQU1tu85xE3z-13">
          <mxGeometry relative="1" as="geometry">
            <mxPoint x="180" y="410.5" as="sourcePoint" />
          </mxGeometry>
        </mxCell>
        <mxCell id="4c8Pc-mHEQU1tu85xE3z-18" value="" style="edgeStyle=orthogonalEdgeStyle;rounded=0;orthogonalLoop=1;jettySize=auto;html=1;exitX=1;exitY=0.5;exitDx=0;exitDy=0;" edge="1" parent="WIyWlLk6GJQsqaUBKTNV-1" source="4c8Pc-mHEQU1tu85xE3z-11" target="4c8Pc-mHEQU1tu85xE3z-17">
          <mxGeometry relative="1" as="geometry">
            <mxPoint x="235" y="358" as="sourcePoint" />
          </mxGeometry>
        </mxCell>
        <mxCell id="4c8Pc-mHEQU1tu85xE3z-11" value="User" style="rhombus;whiteSpace=wrap;html=1;strokeWidth=2;" vertex="1" parent="WIyWlLk6GJQsqaUBKTNV-1">
          <mxGeometry x="125" y="320.5" width="110" height="105" as="geometry" />
        </mxCell>
        <mxCell id="4c8Pc-mHEQU1tu85xE3z-16" value="" style="edgeStyle=orthogonalEdgeStyle;rounded=0;orthogonalLoop=1;jettySize=auto;html=1;" edge="1" parent="WIyWlLk6GJQsqaUBKTNV-1" source="4c8Pc-mHEQU1tu85xE3z-13" target="4c8Pc-mHEQU1tu85xE3z-15">
          <mxGeometry relative="1" as="geometry" />
        </mxCell>
        <mxCell id="4c8Pc-mHEQU1tu85xE3z-81" value="" style="edgeStyle=orthogonalEdgeStyle;rounded=0;orthogonalLoop=1;jettySize=auto;html=1;" edge="1" parent="WIyWlLk6GJQsqaUBKTNV-1" source="4c8Pc-mHEQU1tu85xE3z-13" target="4c8Pc-mHEQU1tu85xE3z-80">
          <mxGeometry relative="1" as="geometry" />
        </mxCell>
        <mxCell id="4c8Pc-mHEQU1tu85xE3z-13" value="Librarian" style="rhombus;whiteSpace=wrap;html=1;strokeWidth=2;" vertex="1" parent="WIyWlLk6GJQsqaUBKTNV-1">
          <mxGeometry x="125" y="470.5" width="110" height="105" as="geometry" />
        </mxCell>
        <mxCell id="4c8Pc-mHEQU1tu85xE3z-107" value="" style="edgeStyle=orthogonalEdgeStyle;rounded=0;orthogonalLoop=1;jettySize=auto;html=1;" edge="1" parent="WIyWlLk6GJQsqaUBKTNV-1" source="4c8Pc-mHEQU1tu85xE3z-15" target="4c8Pc-mHEQU1tu85xE3z-106">
          <mxGeometry relative="1" as="geometry" />
        </mxCell>
        <mxCell id="4c8Pc-mHEQU1tu85xE3z-109" value="" style="edgeStyle=orthogonalEdgeStyle;rounded=0;orthogonalLoop=1;jettySize=auto;html=1;" edge="1" parent="WIyWlLk6GJQsqaUBKTNV-1" source="4c8Pc-mHEQU1tu85xE3z-15" target="4c8Pc-mHEQU1tu85xE3z-108">
          <mxGeometry relative="1" as="geometry" />
        </mxCell>
        <mxCell id="4c8Pc-mHEQU1tu85xE3z-15" value="Admin" style="rhombus;whiteSpace=wrap;html=1;strokeWidth=2;" vertex="1" parent="WIyWlLk6GJQsqaUBKTNV-1">
          <mxGeometry x="115" y="635.5" width="130" height="115" as="geometry" />
        </mxCell>
        <mxCell id="4c8Pc-mHEQU1tu85xE3z-36" value="" style="edgeStyle=orthogonalEdgeStyle;rounded=0;orthogonalLoop=1;jettySize=auto;html=1;entryX=0;entryY=0.5;entryDx=0;entryDy=0;" edge="1" parent="WIyWlLk6GJQsqaUBKTNV-1" source="4c8Pc-mHEQU1tu85xE3z-17" target="4c8Pc-mHEQU1tu85xE3z-35">
          <mxGeometry relative="1" as="geometry">
            <mxPoint x="1041" y="358" as="targetPoint" />
          </mxGeometry>
        </mxCell>
        <mxCell id="4c8Pc-mHEQU1tu85xE3z-17" value="View books, equipment or meeting rooms available" style="shape=parallelogram;perimeter=parallelogramPerimeter;whiteSpace=wrap;html=1;fixedSize=1;strokeWidth=2;" vertex="1" parent="WIyWlLk6GJQsqaUBKTNV-1">
          <mxGeometry x="603" y="341" width="180" height="60" as="geometry" />
        </mxCell>
        <mxCell id="4c8Pc-mHEQU1tu85xE3z-34" style="rounded=0;orthogonalLoop=1;jettySize=auto;html=1;exitX=0.5;exitY=1;exitDx=0;exitDy=0;entryX=0.5;entryY=0;entryDx=0;entryDy=0;" edge="1" parent="WIyWlLk6GJQsqaUBKTNV-1" source="4c8Pc-mHEQU1tu85xE3z-40" target="4c8Pc-mHEQU1tu85xE3z-25">
          <mxGeometry relative="1" as="geometry">
            <mxPoint x="1793" y="525.5" as="sourcePoint" />
          </mxGeometry>
        </mxCell>
        <mxCell id="4c8Pc-mHEQU1tu85xE3z-49" value="" style="edgeStyle=orthogonalEdgeStyle;rounded=0;orthogonalLoop=1;jettySize=auto;html=1;" edge="1" parent="WIyWlLk6GJQsqaUBKTNV-1" source="4c8Pc-mHEQU1tu85xE3z-23" target="4c8Pc-mHEQU1tu85xE3z-48">
          <mxGeometry relative="1" as="geometry" />
        </mxCell>
        <mxCell id="4c8Pc-mHEQU1tu85xE3z-54" value="" style="edgeStyle=orthogonalEdgeStyle;rounded=0;orthogonalLoop=1;jettySize=auto;html=1;" edge="1" parent="WIyWlLk6GJQsqaUBKTNV-1" source="4c8Pc-mHEQU1tu85xE3z-23" target="4c8Pc-mHEQU1tu85xE3z-53">
          <mxGeometry relative="1" as="geometry" />
        </mxCell>
        <mxCell id="4c8Pc-mHEQU1tu85xE3z-23" value="Return book" style="rhombus;whiteSpace=wrap;html=1;strokeWidth=2;" vertex="1" parent="WIyWlLk6GJQsqaUBKTNV-1">
          <mxGeometry x="1036" y="470" width="120" height="108" as="geometry" />
        </mxCell>
        <mxCell id="4c8Pc-mHEQU1tu85xE3z-28" value="" style="edgeStyle=orthogonalEdgeStyle;rounded=0;orthogonalLoop=1;jettySize=auto;html=1;" edge="1" parent="WIyWlLk6GJQsqaUBKTNV-1" source="4c8Pc-mHEQU1tu85xE3z-25" target="4c8Pc-mHEQU1tu85xE3z-27">
          <mxGeometry relative="1" as="geometry" />
        </mxCell>
        <mxCell id="4c8Pc-mHEQU1tu85xE3z-25" value="Fines Payment" style="shape=parallelogram;perimeter=parallelogramPerimeter;whiteSpace=wrap;html=1;fixedSize=1;strokeWidth=2;" vertex="1" parent="WIyWlLk6GJQsqaUBKTNV-1">
          <mxGeometry x="1928" y="643" width="120" height="60" as="geometry" />
        </mxCell>
        <mxCell id="4c8Pc-mHEQU1tu85xE3z-30" value="" style="edgeStyle=orthogonalEdgeStyle;rounded=0;orthogonalLoop=1;jettySize=auto;html=1;entryX=1;entryY=0.5;entryDx=0;entryDy=0;entryPerimeter=0;exitX=0.5;exitY=1;exitDx=0;exitDy=0;" edge="1" parent="WIyWlLk6GJQsqaUBKTNV-1" source="4c8Pc-mHEQU1tu85xE3z-27" target="4c8Pc-mHEQU1tu85xE3z-31">
          <mxGeometry relative="1" as="geometry">
            <mxPoint x="1743" y="958" as="targetPoint" />
          </mxGeometry>
        </mxCell>
        <mxCell id="4c8Pc-mHEQU1tu85xE3z-27" value="Receipt" style="shape=parallelogram;perimeter=parallelogramPerimeter;whiteSpace=wrap;html=1;fixedSize=1;strokeWidth=2;" vertex="1" parent="WIyWlLk6GJQsqaUBKTNV-1">
          <mxGeometry x="1928" y="783" width="120" height="60" as="geometry" />
        </mxCell>
        <mxCell id="4c8Pc-mHEQU1tu85xE3z-31" value="END" style="strokeWidth=2;html=1;shape=mxgraph.flowchart.terminator;whiteSpace=wrap;" vertex="1" parent="WIyWlLk6GJQsqaUBKTNV-1">
          <mxGeometry x="1788" y="1092.5" width="100" height="60" as="geometry" />
        </mxCell>
        <mxCell id="4c8Pc-mHEQU1tu85xE3z-38" value="" style="edgeStyle=orthogonalEdgeStyle;rounded=0;orthogonalLoop=1;jettySize=auto;html=1;exitX=1;exitY=0.5;exitDx=0;exitDy=0;" edge="1" parent="WIyWlLk6GJQsqaUBKTNV-1" source="4c8Pc-mHEQU1tu85xE3z-35" target="4c8Pc-mHEQU1tu85xE3z-37">
          <mxGeometry relative="1" as="geometry">
            <mxPoint x="1151" y="358" as="sourcePoint" />
          </mxGeometry>
        </mxCell>
        <mxCell id="4c8Pc-mHEQU1tu85xE3z-39" style="edgeStyle=orthogonalEdgeStyle;rounded=0;orthogonalLoop=1;jettySize=auto;html=1;exitX=0.5;exitY=1;exitDx=0;exitDy=0;entryX=0.5;entryY=0;entryDx=0;entryDy=0;" edge="1" parent="WIyWlLk6GJQsqaUBKTNV-1" target="4c8Pc-mHEQU1tu85xE3z-23">
          <mxGeometry relative="1" as="geometry">
            <mxPoint x="1096" y="410.5" as="sourcePoint" />
          </mxGeometry>
        </mxCell>
        <mxCell id="4c8Pc-mHEQU1tu85xE3z-35" value="Borrow Book" style="rhombus;whiteSpace=wrap;html=1;strokeWidth=2;" vertex="1" parent="WIyWlLk6GJQsqaUBKTNV-1">
          <mxGeometry x="1041" y="319.5" width="110" height="105" as="geometry" />
        </mxCell>
        <mxCell id="4c8Pc-mHEQU1tu85xE3z-37" value="Input book&#39;s code" style="shape=parallelogram;perimeter=parallelogramPerimeter;whiteSpace=wrap;html=1;fixedSize=1;strokeWidth=2;" vertex="1" parent="WIyWlLk6GJQsqaUBKTNV-1">
          <mxGeometry x="1211" y="341" width="155" height="60" as="geometry" />
        </mxCell>
        <mxCell id="4c8Pc-mHEQU1tu85xE3z-40" value="Overdue" style="rhombus;whiteSpace=wrap;html=1;strokeWidth=2;" vertex="1" parent="WIyWlLk6GJQsqaUBKTNV-1">
          <mxGeometry x="1938" y="470.5" width="100" height="105" as="geometry" />
        </mxCell>
        <mxCell id="4c8Pc-mHEQU1tu85xE3z-46" style="edgeStyle=orthogonalEdgeStyle;rounded=0;orthogonalLoop=1;jettySize=auto;html=1;exitX=1;exitY=0.5;exitDx=0;exitDy=0;entryX=1;entryY=0.5;entryDx=0;entryDy=0;entryPerimeter=0;" edge="1" parent="WIyWlLk6GJQsqaUBKTNV-1" source="4c8Pc-mHEQU1tu85xE3z-37" target="4c8Pc-mHEQU1tu85xE3z-31">
          <mxGeometry relative="1" as="geometry">
            <mxPoint x="1676" y="385.5" as="sourcePoint" />
            <Array as="points">
              <mxPoint x="1356" y="370" />
              <mxPoint x="2086" y="370" />
              <mxPoint x="2086" y="1123" />
            </Array>
          </mxGeometry>
        </mxCell>
        <mxCell id="4c8Pc-mHEQU1tu85xE3z-51" value="" style="edgeStyle=orthogonalEdgeStyle;rounded=0;orthogonalLoop=1;jettySize=auto;html=1;" edge="1" parent="WIyWlLk6GJQsqaUBKTNV-1" source="4c8Pc-mHEQU1tu85xE3z-48" target="4c8Pc-mHEQU1tu85xE3z-50">
          <mxGeometry relative="1" as="geometry" />
        </mxCell>
        <mxCell id="4c8Pc-mHEQU1tu85xE3z-48" value="Input book&#39;s code" style="shape=parallelogram;perimeter=parallelogramPerimeter;whiteSpace=wrap;html=1;fixedSize=1;strokeWidth=2;" vertex="1" parent="WIyWlLk6GJQsqaUBKTNV-1">
          <mxGeometry x="1216" y="493" width="160" height="60" as="geometry" />
        </mxCell>
        <mxCell id="4c8Pc-mHEQU1tu85xE3z-133" value="" style="edgeStyle=orthogonalEdgeStyle;rounded=0;orthogonalLoop=1;jettySize=auto;html=1;" edge="1" parent="WIyWlLk6GJQsqaUBKTNV-1" source="4c8Pc-mHEQU1tu85xE3z-50" target="4c8Pc-mHEQU1tu85xE3z-132">
          <mxGeometry relative="1" as="geometry" />
        </mxCell>
        <mxCell id="4c8Pc-mHEQU1tu85xE3z-139" style="edgeStyle=orthogonalEdgeStyle;rounded=0;orthogonalLoop=1;jettySize=auto;html=1;exitX=1;exitY=0.5;exitDx=0;exitDy=0;entryX=0;entryY=0.5;entryDx=0;entryDy=0;" edge="1" parent="WIyWlLk6GJQsqaUBKTNV-1" source="4c8Pc-mHEQU1tu85xE3z-50" target="4c8Pc-mHEQU1tu85xE3z-40">
          <mxGeometry relative="1" as="geometry" />
        </mxCell>
        <mxCell id="4c8Pc-mHEQU1tu85xE3z-50" value="In time" style="rhombus;whiteSpace=wrap;html=1;strokeWidth=2;" vertex="1" parent="WIyWlLk6GJQsqaUBKTNV-1">
          <mxGeometry x="1778" y="468" width="120" height="110" as="geometry" />
        </mxCell>
        <mxCell id="4c8Pc-mHEQU1tu85xE3z-58" value="" style="edgeStyle=orthogonalEdgeStyle;rounded=0;orthogonalLoop=1;jettySize=auto;html=1;" edge="1" parent="WIyWlLk6GJQsqaUBKTNV-1" source="4c8Pc-mHEQU1tu85xE3z-53" target="4c8Pc-mHEQU1tu85xE3z-57">
          <mxGeometry relative="1" as="geometry" />
        </mxCell>
        <mxCell id="4c8Pc-mHEQU1tu85xE3z-69" style="edgeStyle=orthogonalEdgeStyle;rounded=0;orthogonalLoop=1;jettySize=auto;html=1;exitX=0.5;exitY=1;exitDx=0;exitDy=0;entryX=0.5;entryY=0;entryDx=0;entryDy=0;" edge="1" parent="WIyWlLk6GJQsqaUBKTNV-1" source="4c8Pc-mHEQU1tu85xE3z-53" target="4c8Pc-mHEQU1tu85xE3z-65">
          <mxGeometry relative="1" as="geometry" />
        </mxCell>
        <mxCell id="4c8Pc-mHEQU1tu85xE3z-53" value="Booking" style="rhombus;whiteSpace=wrap;html=1;strokeWidth=2;" vertex="1" parent="WIyWlLk6GJQsqaUBKTNV-1">
          <mxGeometry x="1036" y="618.5" width="120" height="122.5" as="geometry" />
        </mxCell>
        <mxCell id="4c8Pc-mHEQU1tu85xE3z-60" value="" style="edgeStyle=orthogonalEdgeStyle;rounded=0;orthogonalLoop=1;jettySize=auto;html=1;" edge="1" parent="WIyWlLk6GJQsqaUBKTNV-1" source="4c8Pc-mHEQU1tu85xE3z-57" target="4c8Pc-mHEQU1tu85xE3z-59">
          <mxGeometry relative="1" as="geometry" />
        </mxCell>
        <mxCell id="4c8Pc-mHEQU1tu85xE3z-62" value="" style="edgeStyle=orthogonalEdgeStyle;rounded=0;orthogonalLoop=1;jettySize=auto;html=1;" edge="1" parent="WIyWlLk6GJQsqaUBKTNV-1" source="4c8Pc-mHEQU1tu85xE3z-57" target="4c8Pc-mHEQU1tu85xE3z-61">
          <mxGeometry relative="1" as="geometry" />
        </mxCell>
        <mxCell id="4c8Pc-mHEQU1tu85xE3z-57" value="Equipment" style="rhombus;whiteSpace=wrap;html=1;strokeWidth=2;" vertex="1" parent="WIyWlLk6GJQsqaUBKTNV-1">
          <mxGeometry x="1423" y="618.5" width="120" height="122.5" as="geometry" />
        </mxCell>
        <mxCell id="4c8Pc-mHEQU1tu85xE3z-64" value="" style="edgeStyle=orthogonalEdgeStyle;rounded=0;orthogonalLoop=1;jettySize=auto;html=1;" edge="1" parent="WIyWlLk6GJQsqaUBKTNV-1" source="4c8Pc-mHEQU1tu85xE3z-59" target="4c8Pc-mHEQU1tu85xE3z-63">
          <mxGeometry relative="1" as="geometry" />
        </mxCell>
        <mxCell id="4c8Pc-mHEQU1tu85xE3z-59" value="Meeting Room" style="rhombus;whiteSpace=wrap;html=1;strokeWidth=2;" vertex="1" parent="WIyWlLk6GJQsqaUBKTNV-1">
          <mxGeometry x="1623" y="618.5" width="120" height="122.5" as="geometry" />
        </mxCell>
        <mxCell id="4c8Pc-mHEQU1tu85xE3z-61" value="Input equipment details, booking time and date" style="shape=parallelogram;perimeter=parallelogramPerimeter;whiteSpace=wrap;html=1;fixedSize=1;strokeWidth=2;" vertex="1" parent="WIyWlLk6GJQsqaUBKTNV-1">
          <mxGeometry x="1398" y="799.25" width="170" height="60" as="geometry" />
        </mxCell>
        <mxCell id="4c8Pc-mHEQU1tu85xE3z-63" value="Input room details, booking&amp;nbsp;&lt;div&gt;time and date&lt;/div&gt;" style="shape=parallelogram;perimeter=parallelogramPerimeter;whiteSpace=wrap;html=1;fixedSize=1;strokeWidth=2;" vertex="1" parent="WIyWlLk6GJQsqaUBKTNV-1">
          <mxGeometry x="1586.75" y="799.25" width="192.5" height="60" as="geometry" />
        </mxCell>
        <mxCell id="4c8Pc-mHEQU1tu85xE3z-68" value="" style="edgeStyle=orthogonalEdgeStyle;rounded=0;orthogonalLoop=1;jettySize=auto;html=1;" edge="1" parent="WIyWlLk6GJQsqaUBKTNV-1" source="4c8Pc-mHEQU1tu85xE3z-65" target="4c8Pc-mHEQU1tu85xE3z-67">
          <mxGeometry relative="1" as="geometry" />
        </mxCell>
        <mxCell id="4c8Pc-mHEQU1tu85xE3z-65" value="Cancel Booking" style="rhombus;whiteSpace=wrap;html=1;strokeWidth=2;" vertex="1" parent="WIyWlLk6GJQsqaUBKTNV-1">
          <mxGeometry x="1036" y="851.5" width="120" height="126.25" as="geometry" />
        </mxCell>
        <mxCell id="4c8Pc-mHEQU1tu85xE3z-67" value="Input&amp;nbsp;Reservation ID" style="shape=parallelogram;perimeter=parallelogramPerimeter;whiteSpace=wrap;html=1;fixedSize=1;strokeWidth=2;" vertex="1" parent="WIyWlLk6GJQsqaUBKTNV-1">
          <mxGeometry x="1199" y="884.62" width="160" height="60" as="geometry" />
        </mxCell>
        <mxCell id="4c8Pc-mHEQU1tu85xE3z-70" style="edgeStyle=orthogonalEdgeStyle;rounded=0;orthogonalLoop=1;jettySize=auto;html=1;exitX=0.5;exitY=1;exitDx=0;exitDy=0;entryX=0;entryY=0.5;entryDx=0;entryDy=0;entryPerimeter=0;" edge="1" parent="WIyWlLk6GJQsqaUBKTNV-1" source="4c8Pc-mHEQU1tu85xE3z-61" target="4c8Pc-mHEQU1tu85xE3z-31">
          <mxGeometry relative="1" as="geometry" />
        </mxCell>
        <mxCell id="4c8Pc-mHEQU1tu85xE3z-72" style="edgeStyle=orthogonalEdgeStyle;rounded=0;orthogonalLoop=1;jettySize=auto;html=1;exitX=0.5;exitY=1;exitDx=0;exitDy=0;entryX=0;entryY=0.5;entryDx=0;entryDy=0;entryPerimeter=0;" edge="1" parent="WIyWlLk6GJQsqaUBKTNV-1" source="4c8Pc-mHEQU1tu85xE3z-63" target="4c8Pc-mHEQU1tu85xE3z-31">
          <mxGeometry relative="1" as="geometry" />
        </mxCell>
        <mxCell id="4c8Pc-mHEQU1tu85xE3z-74" style="edgeStyle=orthogonalEdgeStyle;rounded=0;orthogonalLoop=1;jettySize=auto;html=1;exitX=1;exitY=0.75;exitDx=0;exitDy=0;entryX=0;entryY=0.5;entryDx=0;entryDy=0;entryPerimeter=0;" edge="1" parent="WIyWlLk6GJQsqaUBKTNV-1" source="4c8Pc-mHEQU1tu85xE3z-67" target="4c8Pc-mHEQU1tu85xE3z-31">
          <mxGeometry relative="1" as="geometry">
            <Array as="points">
              <mxPoint x="1402" y="927" />
              <mxPoint x="1402" y="1123" />
            </Array>
          </mxGeometry>
        </mxCell>
        <mxCell id="4c8Pc-mHEQU1tu85xE3z-79" style="edgeStyle=orthogonalEdgeStyle;rounded=0;orthogonalLoop=1;jettySize=auto;html=1;exitX=0.5;exitY=1;exitDx=0;exitDy=0;entryX=0;entryY=0.5;entryDx=0;entryDy=0;entryPerimeter=0;" edge="1" parent="WIyWlLk6GJQsqaUBKTNV-1" source="4c8Pc-mHEQU1tu85xE3z-65" target="4c8Pc-mHEQU1tu85xE3z-31">
          <mxGeometry relative="1" as="geometry" />
        </mxCell>
        <mxCell id="4c8Pc-mHEQU1tu85xE3z-83" value="" style="edgeStyle=orthogonalEdgeStyle;rounded=0;orthogonalLoop=1;jettySize=auto;html=1;" edge="1" parent="WIyWlLk6GJQsqaUBKTNV-1" source="4c8Pc-mHEQU1tu85xE3z-80" target="4c8Pc-mHEQU1tu85xE3z-82">
          <mxGeometry relative="1" as="geometry" />
        </mxCell>
        <mxCell id="4c8Pc-mHEQU1tu85xE3z-89" value="" style="edgeStyle=orthogonalEdgeStyle;rounded=0;orthogonalLoop=1;jettySize=auto;html=1;" edge="1" parent="WIyWlLk6GJQsqaUBKTNV-1" source="4c8Pc-mHEQU1tu85xE3z-80" target="4c8Pc-mHEQU1tu85xE3z-88">
          <mxGeometry relative="1" as="geometry" />
        </mxCell>
        <mxCell id="4c8Pc-mHEQU1tu85xE3z-80" value="Add / Update" style="rhombus;whiteSpace=wrap;html=1;strokeWidth=2;" vertex="1" parent="WIyWlLk6GJQsqaUBKTNV-1">
          <mxGeometry x="614" y="469" width="116" height="107.5" as="geometry" />
        </mxCell>
        <mxCell id="4c8Pc-mHEQU1tu85xE3z-85" value="" style="edgeStyle=orthogonalEdgeStyle;rounded=0;orthogonalLoop=1;jettySize=auto;html=1;" edge="1" parent="WIyWlLk6GJQsqaUBKTNV-1" source="4c8Pc-mHEQU1tu85xE3z-82" target="4c8Pc-mHEQU1tu85xE3z-84">
          <mxGeometry relative="1" as="geometry" />
        </mxCell>
        <mxCell id="4c8Pc-mHEQU1tu85xE3z-87" value="" style="edgeStyle=orthogonalEdgeStyle;rounded=0;orthogonalLoop=1;jettySize=auto;html=1;" edge="1" parent="WIyWlLk6GJQsqaUBKTNV-1" source="4c8Pc-mHEQU1tu85xE3z-82" target="4c8Pc-mHEQU1tu85xE3z-86">
          <mxGeometry relative="1" as="geometry" />
        </mxCell>
        <mxCell id="4c8Pc-mHEQU1tu85xE3z-82" value="Delete" style="rhombus;whiteSpace=wrap;html=1;strokeWidth=2;" vertex="1" parent="WIyWlLk6GJQsqaUBKTNV-1">
          <mxGeometry x="614" y="656.5" width="116" height="107.5" as="geometry" />
        </mxCell>
        <mxCell id="4c8Pc-mHEQU1tu85xE3z-91" value="" style="edgeStyle=orthogonalEdgeStyle;rounded=0;orthogonalLoop=1;jettySize=auto;html=1;" edge="1" parent="WIyWlLk6GJQsqaUBKTNV-1" source="4c8Pc-mHEQU1tu85xE3z-84" target="4c8Pc-mHEQU1tu85xE3z-90">
          <mxGeometry relative="1" as="geometry" />
        </mxCell>
        <mxCell id="4c8Pc-mHEQU1tu85xE3z-84" value="Calculate" style="rhombus;whiteSpace=wrap;html=1;strokeWidth=2;" vertex="1" parent="WIyWlLk6GJQsqaUBKTNV-1">
          <mxGeometry x="614" y="844" width="116" height="107.5" as="geometry" />
        </mxCell>
        <mxCell id="4c8Pc-mHEQU1tu85xE3z-96" style="edgeStyle=orthogonalEdgeStyle;rounded=0;orthogonalLoop=1;jettySize=auto;html=1;exitX=1;exitY=0.5;exitDx=0;exitDy=0;entryX=0;entryY=0.5;entryDx=0;entryDy=0;entryPerimeter=0;" edge="1" parent="WIyWlLk6GJQsqaUBKTNV-1" source="4c8Pc-mHEQU1tu85xE3z-86" target="4c8Pc-mHEQU1tu85xE3z-31">
          <mxGeometry relative="1" as="geometry">
            <mxPoint x="1763" y="1223" as="targetPoint" />
            <Array as="points">
              <mxPoint x="1003" y="710" />
              <mxPoint x="1003" y="1123" />
            </Array>
          </mxGeometry>
        </mxCell>
        <mxCell id="4c8Pc-mHEQU1tu85xE3z-86" value="Input&amp;nbsp;Reservation ID" style="shape=parallelogram;perimeter=parallelogramPerimeter;whiteSpace=wrap;html=1;fixedSize=1;strokeWidth=2;" vertex="1" parent="WIyWlLk6GJQsqaUBKTNV-1">
          <mxGeometry x="808" y="680.25" width="156" height="60" as="geometry" />
        </mxCell>
        <mxCell id="4c8Pc-mHEQU1tu85xE3z-88" value="Input book&#39;s code, equiment or meeting rooms and details" style="shape=parallelogram;perimeter=parallelogramPerimeter;whiteSpace=wrap;html=1;fixedSize=1;strokeWidth=2;" vertex="1" parent="WIyWlLk6GJQsqaUBKTNV-1">
          <mxGeometry x="808" y="492.75" width="206" height="60" as="geometry" />
        </mxCell>
        <mxCell id="4c8Pc-mHEQU1tu85xE3z-93" value="" style="edgeStyle=orthogonalEdgeStyle;rounded=0;orthogonalLoop=1;jettySize=auto;html=1;" edge="1" parent="WIyWlLk6GJQsqaUBKTNV-1" source="4c8Pc-mHEQU1tu85xE3z-90" target="4c8Pc-mHEQU1tu85xE3z-92">
          <mxGeometry relative="1" as="geometry" />
        </mxCell>
        <mxCell id="4c8Pc-mHEQU1tu85xE3z-90" value="Input User ID" style="shape=parallelogram;perimeter=parallelogramPerimeter;whiteSpace=wrap;html=1;fixedSize=1;strokeWidth=2;" vertex="1" parent="WIyWlLk6GJQsqaUBKTNV-1">
          <mxGeometry x="808" y="867.75" width="156" height="60" as="geometry" />
        </mxCell>
        <mxCell id="4c8Pc-mHEQU1tu85xE3z-97" style="edgeStyle=orthogonalEdgeStyle;rounded=0;orthogonalLoop=1;jettySize=auto;html=1;exitX=0.5;exitY=1;exitDx=0;exitDy=0;entryX=0;entryY=0.5;entryDx=0;entryDy=0;entryPerimeter=0;" edge="1" parent="WIyWlLk6GJQsqaUBKTNV-1" source="4c8Pc-mHEQU1tu85xE3z-92" target="4c8Pc-mHEQU1tu85xE3z-31">
          <mxGeometry relative="1" as="geometry">
            <mxPoint x="1743" y="1173" as="targetPoint" />
          </mxGeometry>
        </mxCell>
        <mxCell id="4c8Pc-mHEQU1tu85xE3z-92" value="Display Total Fines" style="shape=parallelogram;perimeter=parallelogramPerimeter;whiteSpace=wrap;html=1;fixedSize=1;strokeWidth=2;" vertex="1" parent="WIyWlLk6GJQsqaUBKTNV-1">
          <mxGeometry x="808" y="1007.75" width="156" height="60" as="geometry" />
        </mxCell>
        <mxCell id="4c8Pc-mHEQU1tu85xE3z-94" style="edgeStyle=orthogonalEdgeStyle;rounded=0;orthogonalLoop=1;jettySize=auto;html=1;exitX=0.5;exitY=1;exitDx=0;exitDy=0;entryX=0;entryY=0.5;entryDx=0;entryDy=0;entryPerimeter=0;" edge="1" parent="WIyWlLk6GJQsqaUBKTNV-1" source="4c8Pc-mHEQU1tu85xE3z-84" target="4c8Pc-mHEQU1tu85xE3z-31">
          <mxGeometry relative="1" as="geometry" />
        </mxCell>
        <mxCell id="4c8Pc-mHEQU1tu85xE3z-95" style="edgeStyle=orthogonalEdgeStyle;rounded=0;orthogonalLoop=1;jettySize=auto;html=1;exitX=1;exitY=0.5;exitDx=0;exitDy=0;entryX=0;entryY=0.5;entryDx=0;entryDy=0;entryPerimeter=0;" edge="1" parent="WIyWlLk6GJQsqaUBKTNV-1" source="4c8Pc-mHEQU1tu85xE3z-88" target="4c8Pc-mHEQU1tu85xE3z-31">
          <mxGeometry relative="1" as="geometry">
            <Array as="points">
              <mxPoint x="1004" y="1123" />
            </Array>
          </mxGeometry>
        </mxCell>
        <mxCell id="4c8Pc-mHEQU1tu85xE3z-114" style="edgeStyle=orthogonalEdgeStyle;rounded=0;orthogonalLoop=1;jettySize=auto;html=1;exitX=0.5;exitY=1;exitDx=0;exitDy=0;entryX=0;entryY=0.25;entryDx=0;entryDy=0;" edge="1" parent="WIyWlLk6GJQsqaUBKTNV-1" source="4c8Pc-mHEQU1tu85xE3z-106" target="4c8Pc-mHEQU1tu85xE3z-5">
          <mxGeometry relative="1" as="geometry">
            <Array as="points">
              <mxPoint x="180" y="1070" />
              <mxPoint x="20" y="1070" />
              <mxPoint x="20" y="134" />
            </Array>
          </mxGeometry>
        </mxCell>
        <mxCell id="4c8Pc-mHEQU1tu85xE3z-106" value="Incorrect User Name or Password" style="rhombus;whiteSpace=wrap;html=1;strokeWidth=2;" vertex="1" parent="WIyWlLk6GJQsqaUBKTNV-1">
          <mxGeometry x="97.5" y="829.62" width="165" height="142.5" as="geometry" />
        </mxCell>
        <mxCell id="4c8Pc-mHEQU1tu85xE3z-148" value="" style="edgeStyle=orthogonalEdgeStyle;rounded=0;orthogonalLoop=1;jettySize=auto;html=1;" edge="1" parent="WIyWlLk6GJQsqaUBKTNV-1" source="4c8Pc-mHEQU1tu85xE3z-108" target="4c8Pc-mHEQU1tu85xE3z-147">
          <mxGeometry relative="1" as="geometry" />
        </mxCell>
        <mxCell id="4c8Pc-mHEQU1tu85xE3z-108" value="View User&#39;s Activity" style="shape=parallelogram;perimeter=parallelogramPerimeter;whiteSpace=wrap;html=1;fixedSize=1;strokeWidth=2;" vertex="1" parent="WIyWlLk6GJQsqaUBKTNV-1">
          <mxGeometry x="360" y="663" width="140" height="60" as="geometry" />
        </mxCell>
        <mxCell id="4c8Pc-mHEQU1tu85xE3z-112" value="Report Generation" style="shape=parallelogram;perimeter=parallelogramPerimeter;whiteSpace=wrap;html=1;fixedSize=1;strokeWidth=2;" vertex="1" parent="WIyWlLk6GJQsqaUBKTNV-1">
          <mxGeometry x="361.5" y="912.12" width="137" height="60" as="geometry" />
        </mxCell>
        <mxCell id="4c8Pc-mHEQU1tu85xE3z-116" style="edgeStyle=orthogonalEdgeStyle;rounded=0;orthogonalLoop=1;jettySize=auto;html=1;exitX=0.5;exitY=1;exitDx=0;exitDy=0;entryX=0;entryY=0.5;entryDx=0;entryDy=0;entryPerimeter=0;" edge="1" parent="WIyWlLk6GJQsqaUBKTNV-1" source="4c8Pc-mHEQU1tu85xE3z-112" target="4c8Pc-mHEQU1tu85xE3z-31">
          <mxGeometry relative="1" as="geometry" />
        </mxCell>
        <mxCell id="4c8Pc-mHEQU1tu85xE3z-118" value="True" style="text;html=1;align=center;verticalAlign=middle;resizable=0;points=[];autosize=1;strokeColor=none;fillColor=none;" vertex="1" parent="WIyWlLk6GJQsqaUBKTNV-1">
          <mxGeometry x="235" y="331" width="50" height="30" as="geometry" />
        </mxCell>
        <mxCell id="4c8Pc-mHEQU1tu85xE3z-119" value="True" style="text;html=1;align=center;verticalAlign=middle;resizable=0;points=[];autosize=1;strokeColor=none;fillColor=none;" vertex="1" parent="WIyWlLk6GJQsqaUBKTNV-1">
          <mxGeometry x="1152" y="337" width="50" height="30" as="geometry" />
        </mxCell>
        <mxCell id="4c8Pc-mHEQU1tu85xE3z-120" value="False" style="text;html=1;align=center;verticalAlign=middle;resizable=0;points=[];autosize=1;strokeColor=none;fillColor=none;" vertex="1" parent="WIyWlLk6GJQsqaUBKTNV-1">
          <mxGeometry x="1090" y="421" width="50" height="30" as="geometry" />
        </mxCell>
        <mxCell id="4c8Pc-mHEQU1tu85xE3z-121" value="True" style="text;html=1;align=center;verticalAlign=middle;resizable=0;points=[];autosize=1;strokeColor=none;fillColor=none;" vertex="1" parent="WIyWlLk6GJQsqaUBKTNV-1">
          <mxGeometry x="1153" y="498" width="50" height="30" as="geometry" />
        </mxCell>
        <mxCell id="4c8Pc-mHEQU1tu85xE3z-122" value="False" style="text;html=1;align=center;verticalAlign=middle;resizable=0;points=[];autosize=1;strokeColor=none;fillColor=none;" vertex="1" parent="WIyWlLk6GJQsqaUBKTNV-1">
          <mxGeometry x="1091" y="585" width="50" height="30" as="geometry" />
        </mxCell>
        <mxCell id="4c8Pc-mHEQU1tu85xE3z-123" value="True" style="text;html=1;align=center;verticalAlign=middle;resizable=0;points=[];autosize=1;strokeColor=none;fillColor=none;" vertex="1" parent="WIyWlLk6GJQsqaUBKTNV-1">
          <mxGeometry x="1153" y="651.75" width="50" height="30" as="geometry" />
        </mxCell>
        <mxCell id="4c8Pc-mHEQU1tu85xE3z-124" value="False" style="text;html=1;align=center;verticalAlign=middle;resizable=0;points=[];autosize=1;strokeColor=none;fillColor=none;" vertex="1" parent="WIyWlLk6GJQsqaUBKTNV-1">
          <mxGeometry x="1091" y="738.75" width="50" height="30" as="geometry" />
        </mxCell>
        <mxCell id="4c8Pc-mHEQU1tu85xE3z-125" value="True" style="text;html=1;align=center;verticalAlign=middle;resizable=0;points=[];autosize=1;strokeColor=none;fillColor=none;" vertex="1" parent="WIyWlLk6GJQsqaUBKTNV-1">
          <mxGeometry x="1152" y="890.75" width="50" height="30" as="geometry" />
        </mxCell>
        <mxCell id="4c8Pc-mHEQU1tu85xE3z-126" value="False" style="text;html=1;align=center;verticalAlign=middle;resizable=0;points=[];autosize=1;strokeColor=none;fillColor=none;" vertex="1" parent="WIyWlLk6GJQsqaUBKTNV-1">
          <mxGeometry x="1090" y="977.75" width="50" height="30" as="geometry" />
        </mxCell>
        <mxCell id="4c8Pc-mHEQU1tu85xE3z-127" value="False" style="text;html=1;align=center;verticalAlign=middle;resizable=0;points=[];autosize=1;strokeColor=none;fillColor=none;" vertex="1" parent="WIyWlLk6GJQsqaUBKTNV-1">
          <mxGeometry x="1536.75" y="651.75" width="50" height="30" as="geometry" />
        </mxCell>
        <mxCell id="4c8Pc-mHEQU1tu85xE3z-128" value="True" style="text;html=1;align=center;verticalAlign=middle;resizable=0;points=[];autosize=1;strokeColor=none;fillColor=none;" vertex="1" parent="WIyWlLk6GJQsqaUBKTNV-1">
          <mxGeometry x="1474.75" y="738.75" width="50" height="30" as="geometry" />
        </mxCell>
        <mxCell id="4c8Pc-mHEQU1tu85xE3z-129" value="True" style="text;html=1;align=center;verticalAlign=middle;resizable=0;points=[];autosize=1;strokeColor=none;fillColor=none;" vertex="1" parent="WIyWlLk6GJQsqaUBKTNV-1">
          <mxGeometry x="1679" y="742.25" width="50" height="30" as="geometry" />
        </mxCell>
        <mxCell id="4c8Pc-mHEQU1tu85xE3z-131" value="True" style="text;html=1;align=center;verticalAlign=middle;resizable=0;points=[];autosize=1;strokeColor=none;fillColor=none;" vertex="1" parent="WIyWlLk6GJQsqaUBKTNV-1">
          <mxGeometry x="1835" y="578" width="50" height="30" as="geometry" />
        </mxCell>
        <mxCell id="4c8Pc-mHEQU1tu85xE3z-132" value="Display Return Confirmation" style="shape=parallelogram;perimeter=parallelogramPerimeter;whiteSpace=wrap;html=1;fixedSize=1;strokeWidth=2;" vertex="1" parent="WIyWlLk6GJQsqaUBKTNV-1">
          <mxGeometry x="1767" y="682.25" width="142" height="60" as="geometry" />
        </mxCell>
        <mxCell id="4c8Pc-mHEQU1tu85xE3z-134" style="edgeStyle=orthogonalEdgeStyle;rounded=0;orthogonalLoop=1;jettySize=auto;html=1;exitX=0.5;exitY=1;exitDx=0;exitDy=0;entryX=0.5;entryY=0;entryDx=0;entryDy=0;entryPerimeter=0;" edge="1" parent="WIyWlLk6GJQsqaUBKTNV-1" source="4c8Pc-mHEQU1tu85xE3z-132" target="4c8Pc-mHEQU1tu85xE3z-31">
          <mxGeometry relative="1" as="geometry" />
        </mxCell>
        <mxCell id="4c8Pc-mHEQU1tu85xE3z-135" value="True" style="text;html=1;align=center;verticalAlign=middle;resizable=0;points=[];autosize=1;strokeColor=none;fillColor=none;" vertex="1" parent="WIyWlLk6GJQsqaUBKTNV-1">
          <mxGeometry x="1988" y="578" width="50" height="30" as="geometry" />
        </mxCell>
        <mxCell id="4c8Pc-mHEQU1tu85xE3z-140" value="False" style="text;html=1;align=center;verticalAlign=middle;resizable=0;points=[];autosize=1;strokeColor=none;fillColor=none;" vertex="1" parent="WIyWlLk6GJQsqaUBKTNV-1">
          <mxGeometry x="1888" y="498" width="50" height="30" as="geometry" />
        </mxCell>
        <mxCell id="4c8Pc-mHEQU1tu85xE3z-141" value="True" style="text;html=1;align=center;verticalAlign=middle;resizable=0;points=[];autosize=1;strokeColor=none;fillColor=none;" vertex="1" parent="WIyWlLk6GJQsqaUBKTNV-1">
          <mxGeometry x="733" y="493" width="50" height="30" as="geometry" />
        </mxCell>
        <mxCell id="4c8Pc-mHEQU1tu85xE3z-142" value="False" style="text;html=1;align=center;verticalAlign=middle;resizable=0;points=[];autosize=1;strokeColor=none;fillColor=none;" vertex="1" parent="WIyWlLk6GJQsqaUBKTNV-1">
          <mxGeometry x="671" y="580" width="50" height="30" as="geometry" />
        </mxCell>
        <mxCell id="4c8Pc-mHEQU1tu85xE3z-143" value="True" style="text;html=1;align=center;verticalAlign=middle;resizable=0;points=[];autosize=1;strokeColor=none;fillColor=none;" vertex="1" parent="WIyWlLk6GJQsqaUBKTNV-1">
          <mxGeometry x="733" y="673" width="50" height="30" as="geometry" />
        </mxCell>
        <mxCell id="4c8Pc-mHEQU1tu85xE3z-144" value="False" style="text;html=1;align=center;verticalAlign=middle;resizable=0;points=[];autosize=1;strokeColor=none;fillColor=none;" vertex="1" parent="WIyWlLk6GJQsqaUBKTNV-1">
          <mxGeometry x="671" y="760" width="50" height="30" as="geometry" />
        </mxCell>
        <mxCell id="4c8Pc-mHEQU1tu85xE3z-145" value="True" style="text;html=1;align=center;verticalAlign=middle;resizable=0;points=[];autosize=1;strokeColor=none;fillColor=none;" vertex="1" parent="WIyWlLk6GJQsqaUBKTNV-1">
          <mxGeometry x="732" y="871" width="50" height="30" as="geometry" />
        </mxCell>
        <mxCell id="4c8Pc-mHEQU1tu85xE3z-146" value="False" style="text;html=1;align=center;verticalAlign=middle;resizable=0;points=[];autosize=1;strokeColor=none;fillColor=none;" vertex="1" parent="WIyWlLk6GJQsqaUBKTNV-1">
          <mxGeometry x="670" y="958" width="50" height="30" as="geometry" />
        </mxCell>
        <mxCell id="4c8Pc-mHEQU1tu85xE3z-149" style="edgeStyle=orthogonalEdgeStyle;rounded=0;orthogonalLoop=1;jettySize=auto;html=1;exitX=0.5;exitY=1;exitDx=0;exitDy=0;entryX=0.5;entryY=0;entryDx=0;entryDy=0;" edge="1" parent="WIyWlLk6GJQsqaUBKTNV-1" source="4c8Pc-mHEQU1tu85xE3z-147" target="4c8Pc-mHEQU1tu85xE3z-112">
          <mxGeometry relative="1" as="geometry" />
        </mxCell>
        <mxCell id="4c8Pc-mHEQU1tu85xE3z-147" value="Analyse" style="shape=parallelogram;perimeter=parallelogramPerimeter;whiteSpace=wrap;html=1;fixedSize=1;strokeWidth=2;" vertex="1" parent="WIyWlLk6GJQsqaUBKTNV-1">
          <mxGeometry x="360" y="795.25" width="140" height="60" as="geometry" />
        </mxCell>
        <mxCell id="4c8Pc-mHEQU1tu85xE3z-150" value="True" style="text;html=1;align=center;verticalAlign=middle;resizable=0;points=[];autosize=1;strokeColor=none;fillColor=none;" vertex="1" parent="WIyWlLk6GJQsqaUBKTNV-1">
          <mxGeometry x="240" y="498" width="50" height="30" as="geometry" />
        </mxCell>
        <mxCell id="4c8Pc-mHEQU1tu85xE3z-151" value="False" style="text;html=1;align=center;verticalAlign=middle;resizable=0;points=[];autosize=1;strokeColor=none;fillColor=none;" vertex="1" parent="WIyWlLk6GJQsqaUBKTNV-1">
          <mxGeometry x="178" y="585" width="50" height="30" as="geometry" />
        </mxCell>
        <mxCell id="4c8Pc-mHEQU1tu85xE3z-152" value="True" style="text;html=1;align=center;verticalAlign=middle;resizable=0;points=[];autosize=1;strokeColor=none;fillColor=none;" vertex="1" parent="WIyWlLk6GJQsqaUBKTNV-1">
          <mxGeometry x="240" y="663" width="50" height="30" as="geometry" />
        </mxCell>
        <mxCell id="4c8Pc-mHEQU1tu85xE3z-153" value="False" style="text;html=1;align=center;verticalAlign=middle;resizable=0;points=[];autosize=1;strokeColor=none;fillColor=none;" vertex="1" parent="WIyWlLk6GJQsqaUBKTNV-1">
          <mxGeometry x="178" y="750" width="50" height="30" as="geometry" />
        </mxCell>
        <mxCell id="4c8Pc-mHEQU1tu85xE3z-154" value="False" style="text;html=1;align=center;verticalAlign=middle;resizable=0;points=[];autosize=1;strokeColor=none;fillColor=none;" vertex="1" parent="WIyWlLk6GJQsqaUBKTNV-1">
          <mxGeometry x="178" y="421" width="50" height="30" as="geometry" />
        </mxCell>
      </root>
    </mxGraphModel>
  </diagram>
</mxfile>
